<?xml version="1.0" encoding="UTF-8" standalone="no"?>
<svg
   xmlns:dc="http://purl.org/dc/elements/1.1/"
   xmlns:cc="http://creativecommons.org/ns#"
   xmlns:rdf="http://www.w3.org/1999/02/22-rdf-syntax-ns#"
   xmlns:svg="http://www.w3.org/2000/svg"
   xmlns="http://www.w3.org/2000/svg"
   xmlns:sodipodi="http://sodipodi.sourceforge.net/DTD/sodipodi-0.dtd"
   xmlns:inkscape="http://www.inkscape.org/namespaces/inkscape"
   inkscape:version="1.0 (4035a4fb49, 2020-05-01)"
   sodipodi:docname="leaf-bg-top.svg"
   id="svg4"
   version="1.1"
   height="517"
   width="1600">
  <metadata
     id="metadata10">
    <rdf:RDF>
      <cc:Work
         rdf:about="">
        <dc:format>image/svg+xml</dc:format>
        <dc:type
           rdf:resource="http://purl.org/dc/dcmitype/StillImage" />
      </cc:Work>
    </rdf:RDF>
  </metadata>
  <defs
     id="defs8" />
  <sodipodi:namedview
     inkscape:current-layer="svg4"
     inkscape:window-maximized="1"
     inkscape:window-y="-8"
     inkscape:window-x="-8"
     inkscape:cy="222.31892"
     inkscape:cx="800"
     inkscape:zoom="0.655625"
     showgrid="false"
     id="namedview6"
     inkscape:window-height="705"
     inkscape:window-width="1366"
     inkscape:pageshadow="2"
     inkscape:pageopacity="0"
     guidetolerance="10"
     gridtolerance="10"
     objecttolerance="10"
     borderopacity="1"
     bordercolor="#666666"
     pagecolor="#ffffff" />
  <path
     sodipodi:nodetypes="ccscsccscscccccccc"
     id="path2"
     fill="#36197f"
     d="m 171.715,0 c 20.145,64.814 50.298,156.159 74.285,204.434 39.666,79.83 71.66,37.324 75.121,13.226 3.461,-24.098 36.055,-56.45 122.024,109.23 85.968,165.681 164.035,176.49 201.865,70.311 37.83,-106.179 106.48,-69.521 179.43,20.839 80.207,99.348 250.7,156.474 199.28,10.594 -56.621,-160.631 -7.87,-146.304 111.746,-106.137 119.616,40.167 160.48,56.398 198.629,10.865 38.148,-45.533 -12.767,-59.019 -44.207,-95.89 -31.441,-36.872 0.064,-49.012 53.049,-60.473 52.984,-11.46 99.36,-14.035 107.216,-61.537 7.858,-47.502 -98.365,-37.75 13.733,-104.164 6.322,-3.746 11.8,-7.52 16.539,-11.297 H 1343.446 C 1257.544,2.1478541 1094.5127,-4.4361268 940.18771,0.13987321 807.31171,4.0788732 705.38608,-2.9802431 506.22,0 Z" />
</svg>
