<?xml version="1.0" encoding="UTF-8" standalone="no"?>
<svg
   xmlns:dc="http://purl.org/dc/elements/1.1/"
   xmlns:cc="http://creativecommons.org/ns#"
   xmlns:rdf="http://www.w3.org/1999/02/22-rdf-syntax-ns#"
   xmlns:svg="http://www.w3.org/2000/svg"
   xmlns="http://www.w3.org/2000/svg"
   xmlns:sodipodi="http://sodipodi.sourceforge.net/DTD/sodipodi-0.dtd"
   xmlns:inkscape="http://www.inkscape.org/namespaces/inkscape"
   inkscape:version="1.0 (4035a4fb49, 2020-05-01)"
   sodipodi:docname="leaf-cyan-lg.svg"
   id="svg6"
   version="1.1"
   height="291"
   width="464">
  <metadata
     id="metadata12">
    <rdf:RDF>
      <cc:Work
         rdf:about="">
        <dc:format>image/svg+xml</dc:format>
        <dc:type
           rdf:resource="http://purl.org/dc/dcmitype/StillImage" />
      </cc:Work>
    </rdf:RDF>
  </metadata>
  <defs
     id="defs10" />
  <sodipodi:namedview
     inkscape:current-layer="svg6"
     inkscape:window-maximized="1"
     inkscape:window-y="-8"
     inkscape:window-x="-8"
     inkscape:cy="152.32055"
     inkscape:cx="94.169909"
     inkscape:zoom="1.3072971"
     showgrid="false"
     id="namedview8"
     inkscape:window-height="705"
     inkscape:window-width="1366"
     inkscape:pageshadow="2"
     inkscape:pageopacity="0"
     guidetolerance="10"
     gridtolerance="10"
     objecttolerance="10"
     borderopacity="1"
     bordercolor="#666666"
     pagecolor="#ffffff" />
  <path
     style="fill:#e64028;fill-opacity:1"
     id="path2"
     fill="#17e4e0"
     d="M461.207 290.339s-2.549 2.316-4.456-1.722c-1.907-4.038-10.73-24.447-22.287-38.184-11.559-13.737-23.579-29.481-45.462-28.555-21.884.926-28.51-8.026-35.6-14.663-7.088-6.638-13.253-10.65-31.591-8.335-18.34 2.315-18.34 18.059-37.295 22.226-18.955 4.168-29.434 3.705-52.55-12.348-23.117-16.053-40.069-2.007-59.486.926-19.418 2.933-32.664-2.46-49.912-10.36-17.248-7.899-33.376-25.362-40.786-50.901-7.41-25.54-2.179-31.215-46.857-44.75C-9.753 90.14-.653 40.43 4.168 26.759 8.99 13.085 47.205.936 47.205.936S74.155.861 91.59 30.984c17.435 30.124 37.268 37.982 52.524 31.87 15.256-6.112 30.076-14.625 60.152 2.62 30.076 17.244 64.728 69.197 76.061 78.146 11.333 8.95 180.214 67.292 180.88 146.719z" />
  <path
     sodipodi:nodetypes="ccccccccccscccccccc"
     style="fill:#f4a41c;fill-opacity:1"
     id="path4"
     fill="#3ef8f4"
     d="m 39.04,0 c 3.937749,-0.01483789 7.849625,0.63669073 11.57,1.927 24.041,8.335 21.391,16.979 31.562,41.058 10.172,24.079 31.462,28.606 60.921,19.266 43.856,-13.904 61.79,28.318 74.25,39.458 24.923,21.816 92.457,34.914 139.918,54.571 68.516,28.377 97.854,84.891 104.018,107.273 6.164,22.38 -0.073,26.786 -0.073,26.786 -2.388,2.16 -3.934,-6.412 -9.482,-21.076 -5.547,-14.663 -19.417,-36.426 -28.51,-40.593 -9.092,-4.168 -14.641,-13.121 -24.812,-16.671 -10.171,-3.55 -11.712,1.39 -30.513,-17.132 -18.801,-18.523 -35.137,-24.079 -63.493,2.47 -28.356,26.548 -49.314,29.326 -59.176,12.656 -9.863,-16.67 -33.597,-34.884 -61.336,-16.67 -27.74,18.213 -60.72,17.596 -80.753,-12.657 C 83.096,150.413 98.816,122.63 71.076,108.121 43.336,93.611 7.893,99.478 2.036,55.951 -2.904,19.223 17.958,0.08 39.04,0 Z" />
</svg>
