<?xml version="1.0" encoding="UTF-8" standalone="no"?>
<svg
   xmlns:dc="http://purl.org/dc/elements/1.1/"
   xmlns:cc="http://creativecommons.org/ns#"
   xmlns:rdf="http://www.w3.org/1999/02/22-rdf-syntax-ns#"
   xmlns:svg="http://www.w3.org/2000/svg"
   xmlns="http://www.w3.org/2000/svg"
   xmlns:sodipodi="http://sodipodi.sourceforge.net/DTD/sodipodi-0.dtd"
   xmlns:inkscape="http://www.inkscape.org/namespaces/inkscape"
   inkscape:version="1.0 (4035a4fb49, 2020-05-01)"
   sodipodi:docname="leaf-yellow.svg"
   id="svg6"
   version="1.1"
   height="125.66542"
   width="366.52417">
  <metadata
     id="metadata12">
    <rdf:RDF>
      <cc:Work
         rdf:about="">
        <dc:format>image/svg+xml</dc:format>
        <dc:type
           rdf:resource="http://purl.org/dc/dcmitype/StillImage" />
      </cc:Work>
    </rdf:RDF>
  </metadata>
  <defs
     id="defs10" />
  <sodipodi:namedview
     inkscape:current-layer="svg6"
     inkscape:window-maximized="1"
     inkscape:window-y="-8"
     inkscape:window-x="-8"
     inkscape:cy="51.503333"
     inkscape:cx="123.47049"
     inkscape:zoom="0.66740956"
     showgrid="false"
     id="namedview8"
     inkscape:window-height="705"
     inkscape:window-width="1366"
     inkscape:pageshadow="2"
     inkscape:pageopacity="0"
     guidetolerance="10"
     gridtolerance="10"
     objecttolerance="10"
     borderopacity="1"
     bordercolor="#666666"
     pagecolor="#ffffff" />
  <path
     style="fill:#ff9e2b;fill-opacity:1;stroke-width:1.30901"
     d="M 30.107341,41.88847 C 30.107341,41.88847 0,75.00655 0,95.16538 c 0,16.75539 13.482851,30.50004 30.107341,30.50004 16.624489,0 30.107342,-13.74465 30.107342,-30.50004 0,-20.15883 -30.107342,-53.27691 -30.107342,-53.27691 z M 132.2105,0 c 0,0 -30.10734,33.11807 -30.10734,53.2769 0,16.75539 13.61375,30.50005 30.10734,30.50005 16.62449,0 30.10734,-13.74466 30.10734,-30.50005 C 162.31784,33.11807 132.2105,0 132.2105,0 Z m 102.10316,41.88847 c 0,0 -30.10734,33.11808 -30.10734,53.27691 0,16.75539 13.48285,30.50004 30.10734,30.50004 16.49359,0 30.10734,-13.74465 30.10734,-30.50004 0,-20.15883 -30.10734,-53.27691 -30.10734,-53.27691 z M 336.41682,0 c 0,0 -30.10734,33.11807 -30.10734,53.2769 0,16.75539 13.61375,30.50005 30.10734,30.50005 16.62449,0 30.10734,-13.74466 30.10734,-30.50005 C 366.52416,33.11807 336.41682,0 336.41682,0 Z"
     id="path2-3"
     sodipodi:nodetypes="csssccsssccsssccsssc" />
</svg>
