<?xml version="1.0" encoding="UTF-8" standalone="no"?>
<svg
   xmlns:dc="http://purl.org/dc/elements/1.1/"
   xmlns:cc="http://creativecommons.org/ns#"
   xmlns:rdf="http://www.w3.org/1999/02/22-rdf-syntax-ns#"
   xmlns:svg="http://www.w3.org/2000/svg"
   xmlns="http://www.w3.org/2000/svg"
   xmlns:sodipodi="http://sodipodi.sourceforge.net/DTD/sodipodi-0.dtd"
   xmlns:inkscape="http://www.inkscape.org/namespaces/inkscape"
   inkscape:version="1.0 (4035a4fb49, 2020-05-01)"
   sodipodi:docname="leaf-bg.svg"
   id="svg4"
   version="1.1"
   height="864"
   width="1600">
  <metadata
     id="metadata10">
    <rdf:RDF>
      <cc:Work
         rdf:about="">
        <dc:format>image/svg+xml</dc:format>
        <dc:type
           rdf:resource="http://purl.org/dc/dcmitype/StillImage" />
      </cc:Work>
    </rdf:RDF>
  </metadata>
  <defs
     id="defs8" />
  <sodipodi:namedview
     inkscape:current-layer="svg4"
     inkscape:window-maximized="1"
     inkscape:window-y="-8"
     inkscape:window-x="-8"
     inkscape:cy="593.77388"
     inkscape:cx="943.25766"
     inkscape:zoom="0.31134259"
     showgrid="false"
     id="namedview6"
     inkscape:window-height="705"
     inkscape:window-width="1366"
     inkscape:pageshadow="2"
     inkscape:pageopacity="0"
     guidetolerance="10"
     gridtolerance="10"
     objecttolerance="10"
     borderopacity="1"
     bordercolor="#666666"
     pagecolor="#ffffff" />
  <path
     sodipodi:nodetypes="ccccccccccccccccccccccsc"
     id="path2"
     fill="#36197f"
     d="m 619.148,131.475 c -45.084,0.475 -69.441,32.787 -41.29,113.423 72.138,206.64 9.546,188.042 -144.012,135.961 -153.559,-52.08 -206.01,-73.097 -255.21,-14.732 -49.199,58.365 16.18,75.893 56.44,123.396 40.261,47.505 -0.273,62.984 -68.406,77.506 C 98.537,581.552 38.933,584.681 28.652,645.693 18.371,706.707 154.912,694.585 10.602,779.498 7.0027256,781.61375 3.4671631,783.83607 0,786.162 V 864 l 1228.605,25.69517 C 1151.0654,871.06448 1678.626,877.32075 1600,864 1170.836,791.325 193.956,797.871 103.549,817.141 29.545,832.915 11.426,838.364 7.197,839.848 22.002,834.321 318.45933,815.46971 688.07433,805.62471 963.44844,804.14366 1292.3124,899.94655 1571.74,864 H 1600 V 590.326 c -8.13,-20.532 -16.096,-39.107 -23.59,-54.303 -50.664,-102.738 -91.946,-48.243 -96.486,-17.29 -4.541,30.954 -46.55,72.402 -156.383,-140.84 C 1213.708,164.649 1113.429,150.459 1064.404,286.758 1015.38,423.058 927.3,375.686 833.904,259.285 775.341,186.297 678.987,130.843 619.148,131.475 Z" />
</svg>
