<?xml version="1.0" encoding="UTF-8" standalone="no"?>
<svg
   xmlns:dc="http://purl.org/dc/elements/1.1/"
   xmlns:cc="http://creativecommons.org/ns#"
   xmlns:rdf="http://www.w3.org/1999/02/22-rdf-syntax-ns#"
   xmlns:svg="http://www.w3.org/2000/svg"
   xmlns="http://www.w3.org/2000/svg"
   xmlns:sodipodi="http://sodipodi.sourceforge.net/DTD/sodipodi-0.dtd"
   xmlns:inkscape="http://www.inkscape.org/namespaces/inkscape"
   inkscape:version="1.0 (4035a4fb49, 2020-05-01)"
   sodipodi:docname="leaf-pink-round.svg"
   id="svg6"
   version="1.1"
   height="68"
   width="84">
  <metadata
     id="metadata12">
    <rdf:RDF>
      <cc:Work
         rdf:about="">
        <dc:format>image/svg+xml</dc:format>
        <dc:type
           rdf:resource="http://purl.org/dc/dcmitype/StillImage" />
      </cc:Work>
    </rdf:RDF>
  </metadata>
  <defs
     id="defs10" />
  <sodipodi:namedview
     inkscape:current-layer="svg6"
     inkscape:window-maximized="1"
     inkscape:window-y="-8"
     inkscape:window-x="-8"
     inkscape:cy="34"
     inkscape:cx="42"
     inkscape:zoom="7.9117647"
     showgrid="false"
     id="namedview8"
     inkscape:window-height="705"
     inkscape:window-width="1366"
     inkscape:pageshadow="2"
     inkscape:pageopacity="0"
     guidetolerance="10"
     gridtolerance="10"
     objecttolerance="10"
     borderopacity="1"
     bordercolor="#666666"
     pagecolor="#ffffff" />
  <path
     style="fill:#ff9955"
     id="path2"
     fill="#f54ea2"
     d="M58.67 67.1s23.16-.973 24.745-20.854C85 26.364 73.763.864 40.051 0 6.339-.864-4.9 37.89 1.729 52.585 8.356 67.28 25.644 68.145 33.424 68c7.78-.144 17.41-.102 17.41-.102l-4.075-27.913z" />
  <path
     style="fill:#ff6600"
     id="path4"
     fill="#df4090"
     d="M50.02 1.086L48.84 28.38l8.926-25.088a47.522 47.522 0 0 0-7.746-2.207zm-20.75.105a34.596 34.596 0 0 0-8.624 3.54l13.93 26.1L29.27 1.19zM75.377 16.56L64.543 30.543l14.71-7.488a40.064 40.064 0 0 0-3.876-6.496zM6.15 19.787A49.172 49.172 0 0 0 1.957 29.6l18.5 1.52L6.15 19.786zm77.211 18.535L53.45 42.5l30.065 2.082c.088-2.048.04-4.145-.153-6.26zm-46.336 2.305L7.665 60.604c2.997 2.607 6.494 4.304 10.017 5.412l19.343-25.389z" />
</svg>
