<?xml version="1.0" encoding="UTF-8" standalone="no"?>
<svg
   xmlns:dc="http://purl.org/dc/elements/1.1/"
   xmlns:cc="http://creativecommons.org/ns#"
   xmlns:rdf="http://www.w3.org/1999/02/22-rdf-syntax-ns#"
   xmlns:svg="http://www.w3.org/2000/svg"
   xmlns="http://www.w3.org/2000/svg"
   xmlns:sodipodi="http://sodipodi.sourceforge.net/DTD/sodipodi-0.dtd"
   xmlns:inkscape="http://www.inkscape.org/namespaces/inkscape"
   width="169"
   height="96"
   version="1.1"
   id="svg6"
   sodipodi:docname="leaf-cyan.svg"
   inkscape:version="1.0 (4035a4fb49, 2020-05-01)">
  <metadata
     id="metadata12">
    <rdf:RDF>
      <cc:Work
         rdf:about="">
        <dc:format>image/svg+xml</dc:format>
        <dc:type
           rdf:resource="http://purl.org/dc/dcmitype/StillImage" />
      </cc:Work>
    </rdf:RDF>
  </metadata>
  <defs
     id="defs10" />
  <sodipodi:namedview
     inkscape:document-rotation="0"
     pagecolor="#ffffff"
     bordercolor="#666666"
     borderopacity="1"
     objecttolerance="10"
     gridtolerance="10"
     guidetolerance="10"
     inkscape:pageopacity="0"
     inkscape:pageshadow="2"
     inkscape:window-width="1366"
     inkscape:window-height="705"
     id="namedview8"
     showgrid="false"
     inkscape:zoom="2.8020834"
     inkscape:cx="25.478013"
     inkscape:cy="65.830256"
     inkscape:window-x="-8"
     inkscape:window-y="-8"
     inkscape:window-maximized="1"
     inkscape:current-layer="svg6" />
  <path
     d="M137.01 87.096s24.87 14.377 28.863 6.594c18.717-36.488-51.914-54.794-70.858-58.931-23.586-5.151-39.731-11.191-55.717-27.822C23.312-9.693-8.969 6.782 2.36 22.791 13.69 38.8 18.346 28.075 34.642 39.888c16.14 11.657 10.098 35.093 42.37 44.142 22.495 6.307 59.999 3.066 59.999 3.066z"
     fill="#2ddad6"
     id="path2"
     style="fill:#e3920c;fill-opacity:1" />
  <path
     d="M16.927 3.777C12.275 3.73 7.955 4.903 4.571 6.633-.066 10.975-1.801 16.91 2.36 22.79c3.1 4.38 5.7 6.752 8.175 8.138 9.032-.327 20.993-.655 28.953 13.5 10.397 12.412 9.03 31.61 37.524 39.6 1.63.457 3.346.86 5.113 1.222 5.704-5.284 21.916-17.15 46.724-9.77 31.35 9.325 40.197 21.604 38.335 5.44-1.045-9.064-10.973-20.962-24.007-29.557-8.365-4.41-17.64-7.946-26.066-10.65-2.525-.39-5.037-.574-7.508-.514-25.608.621-56.027.776-67.667-19.896C35.025 8.03 25.432 3.866 16.927 3.777z"
     fill="#3ef8f4"
     id="path4"
     style="fill:#f4a31c;fill-opacity:1" />
</svg>
